<?xml version="1.0" encoding="UTF-8"?>
<svg id="_レイヤー_1" data-name="レイヤー_1" xmlns="http://www.w3.org/2000/svg" width="228.899" height="50" version="1.1" viewBox="0 0 228.899 50">
  <!-- Generator: Adobe Illustrator 29.0.0, SVG Export Plug-In . SVG Version: 2.1.0 Build 186)  -->
  <defs>
    <style>
      .st0 {
        fill: #cf9c3d;
      }

      .st1 {
        fill: #96a78a;
      }

      .st2 {
        fill: #b6c9a5;
      }

      .st3 {
        fill: #fdbd4a;
      }

      .st4 {
        fill-rule: evenodd;
      }

      .st5 {
        fill: #c6e9fa;
      }

      .st6 {
        fill: #403f41;
      }

      .st7 {
        fill: #8ebacf;
      }

      .st8 {
        fill: #221e1f;
      }
    </style>
  </defs>
  <g>
    <g>
      <path class="st1" d="M68.168,10.433c.777.139,1.431.52,1.959,1.145.527.626.793,1.34.793,2.146v22.636c0,.806-.265,1.515-.793,2.126-.528.611-1.181.987-1.959,1.125h-7.713c-.777-.137-1.431-.514-1.958-1.125-.529-.611-.793-1.32-.793-2.126V13.724c0-.806.264-1.52.793-2.146.527-.626,1.181-1.006,1.958-1.145h7.713ZM66.334,18.094v-3.078h-4.043v20.009h4.043v-16.931Z"/>
      <path class="st1" d="M89.092,10.433l-.291,1.041-5.086,18.09v10.046h-4.584v-10.046l-5.126-18.09-.251-1.041h4.669l.168.583,2.834,10.338,2.834-10.338.167-.583h4.667Z"/>
      <path class="st1" d="M103.016,11.806c.666.808.999,1.71.999,2.711v3.96h-4.584v-3.461h-3.544v7.32h3.939c1.172,0,2.163.404,2.975,1.207.808.804,1.215,1.788,1.215,2.951v8.997c0,.999-.333,1.901-.999,2.705-.668.749-1.502,1.206-2.503,1.372l-.083.041h-5.544l-.084-.041c-.999-.167-1.833-.626-2.501-1.376-.667-.806-1-1.709-1-2.71v-3.96h4.585v3.501h3.544v-8.102h-3.961c-1.167,0-2.154-.403-2.959-1.208-.807-.806-1.209-1.794-1.209-2.96v-8.238c0-1.001.333-1.903,1-2.711.668-.75,1.502-1.208,2.501-1.374h5.711c1.001.165,1.834.624,2.503,1.374Z"/>
      <path class="st1" d="M119.814,15.016h-4.126v24.594h-4.585V15.016h-4.419v-4.583h13.13v4.583Z"/>
      <path class="st1" d="M134.447,10.433v4.583h-7.338v7.363h5.835v4.584h-5.835v8.062h7.338v4.585h-11.924V10.433h11.924Z"/>
      <path class="st1" d="M151.202,39.61h-4.209l-5.253-17.274h4.084v-7.32h-4.084v24.594h-4.586V10.433h9.922c.86,0,1.597.276,2.21.833.61.555.971,1.25,1.082,2.083l.042.417v9.821c0,.862-.285,1.604-.855,2.23-.569.626-1.259.993-2.064,1.105l3.71,12.688Z"/>
    </g>
    <g>
      <path class="st3" d="M169.21,39.61h-4.001l-2.21-12.754-2.209,12.754h-4.002l-3.668-29.177h2.96l2.71,23.342,3.083-16.131h2.584l2.751,16.131,2.668-23.342h2.96l-3.626,29.177Z"/>
      <path class="st3" d="M184.089,10.39c.806.139,1.473.514,2.002,1.127.527.613.793,1.337.793,2.17v22.626c0,.835-.266,1.559-.793,2.17-.529.613-1.196.99-2.002,1.127h-6.127c-.806-.137-1.473-.514-2-1.127-.529-.611-.792-1.335-.792-2.17V13.687c0-.833.263-1.557.792-2.17.527-.613,1.195-.988,2-1.127h6.127ZM183.966,13.724c0-.278-.125-.415-.375-.415h-5.085c-.278,0-.418.137-.418.415v22.552c0,.278.139.417.418.417h5.085c.25,0,.375-.139.375-.417V13.724Z"/>
      <path class="st3" d="M200.326,11.411c.652.654.98,1.439.98,2.356v9.821c0,.917-.328,1.703-.98,2.354-.653.654-1.438.981-2.355.981h-1.001l4.336,12.688h-3.127l-5.043-15.606h4.835c.278,0,.417-.139.417-.416v-9.821c0-.278-.139-.417-.417-.417h-5.461v26.261h-2.918V10.433h8.379c.917,0,1.703.326,2.355.978Z"/>
      <path class="st3" d="M214.519,36.693v2.917h-10.505V10.433h2.919v26.261h7.586Z"/>
      <path class="st3" d="M225.566,10.474c.917,0,1.701.334,2.355.999.653.666.979,1.457.979,2.372v22.478c0,.887-.326,1.657-.979,2.309-.654.654-1.438.979-2.355.979h-8.296V10.474h8.296ZM225.983,13.807c0-.276-.139-.416-.416-.416h-5.377v23.302h5.377c.277,0,.416-.126.416-.375V13.807Z"/>
    </g>
  </g>
  <g>
    <path class="st2" d="M15.134,10.443l-4.678-.42s-4.319-.12-4.858.3c-.54.42-3.899,2.159-4.079,3.059-.18.9-1.02,5.518-1.02,6.058s1.979,3.959,1.979,4.139,3.599,3.119,3.599,3.119l6.837,2.759,5.218.12,8.818-.72,9.117-.66,6.837-1.02,4.439-1.559,2.16-2.519-.18-3.179s-2.039-1.38-2.22-1.38-3.838-.9-4.018-1.02-2.592-1.928-2.592-1.928l-25.359-5.15Z"/>
    <path class="st1" d="M47.342,18.54c-.179,0-3.838-.9-4.018-1.02-.18-.12-2.592-1.928-2.592-1.928l-25.36-5.15-4.679-.42s-4.319-.12-4.858.3c-.54.42-3.898,2.159-4.079,3.059-.18.9-1.02,5.518-1.02,6.058s1.979,3.959,1.979,4.139c0,.053.318.35.763.74-.041-.587-.069-1.087-.069-1.36,0-1.032.238-1.588.397-2.541.159-.953.556-1.509,1.27-2.462.715-.953,1.668-1.588,2.383-2.144.715-.556,4.129-1.509,5.479-1.906,1.35-.397,3.256,0,3.494,0s20.569,3.653,21.522,3.732c.953.079,6.671,1.747,8.18,2.541,1.509.794,1.588,1.429,2.065,1.985.476.556.318,1.747.318,1.747l.375.176.848-.99-.18-3.179s-2.039-1.38-2.22-1.38Z"/>
    <path class="st6" d="M39.942,47.593c0,1.33-5.412,2.407-12.089,2.407s-12.089-1.078-12.089-2.407,5.412-2.407,12.089-2.407,12.089,1.078,12.089,2.407Z"/>
    <path class="st5" d="M40.146,13.562c0,6.824-5.532,12.356-12.356,12.356s-12.356-5.532-12.356-12.356S20.966,1.206,27.79,1.206s12.356,5.532,12.356,12.356Z"/>
    <path class="st7" d="M21.612,10.323c0-3.119.869-6.035,2.377-8.519-4.964,1.603-8.556,6.26-8.556,11.758,0,6.824,5.532,12.356,12.356,12.356,1.268,0,2.491-.192,3.643-.547-5.783-2.545-9.821-8.325-9.821-15.048Z"/>
    <path class="st2" d="M18.073,46.251l-3.179-1.199s3.779-1.32,4.859-1.919c1.08-.6,4.619-2.219,6.178-2.939,1.56-.72,4.018-1.679,5.338-2.159,1.32-.48,3.839-.96,4.679-1.2.839-.24,4.678-.96,4.678-.96,0,0-1.679,1.739-2.639,2.519-.96.78-3.899,3.359-4.439,3.839-.54.48-2.339,1.919-3.479,2.519-1.14.6-3.539,1.32-4.919,1.56-1.379.24-6.718-.06-7.078-.06Z"/>
    <path class="st3" d="M47.04,31.36c-.136-.595-.945-1.633-4.835-1.899h-.026c-.474-.018-3.019-.101-6.506-.101-6.76,0-19.031.326-25.248,2.506-6.672,2.34-8.042,4.87-8.49,6.814-.519,2.251,1.039,4.28,3.877,5.051l.146.04c1.907.518,3.879,1.054,6.11,1.054,2.173,0,4.298-.519,6.498-1.587,5.483-2.663,11.152-5.417,16.476-6.524,4.237-.881,8.619-1.792,10.108-2.643,1.092-.624,2.097-1.808,1.89-2.71Z"/>
    <path class="st0" d="M42.385,29.461h-.026c-.475-.018-3.02-.101-6.506-.101-6.761,0-19.031.326-25.248,2.506-6.671,2.34-8.042,4.87-8.49,6.814-.519,2.251,1.039,4.28,3.876,5.051l.146.04c1.907.518,3.879,1.054,6.11,1.054,0,0-1.852-1.473-2.452-2.051-.616-.593-.971-1.494-1.02-2.234-.053-.81.082-1.749.78-2.864.615-.982,1.579-1.97,3.839-3.179,2.241-1.2,3.276-1.47,5.518-2.099,1.684-.473,9.897-1.5,11.757-1.62,1.859-.12,12.596-.12,14.275.06,1.679.18,2.04,1.2,2.04,1.2,0,0,.07.022.174.058.087-.254.114-.503.062-.734-.136-.595-.946-1.633-4.835-1.899Z"/>
    <path class="st0" d="M18.268,30.307l-2.228.28c.044.239.088.489.133.749.224,1.281.481,2.744.982,4.121.202-1.735.52-3.323,1.403-3.524-.131-.539-.233-1.087-.289-1.626Z"/>
    <path class="st0" d="M34.165,28.287c-.122.255-.267.514-.44.778-1.181,1.799-2.088,3.083-2.88,4.156l-.171.235,1.939.199,1.03.238.076-.133c.338-.594,1.55-2.783,2.561-5.379l-2.114-.093Z"/>
    <path d="M50.144,21.338c-.187-1.686-1.352-2.942-3.117-3.36-1.683-.399-4.7-1.587-7.069-2.921l-.27,1.263c2.459,1.318,5.315,2.45,7.054,2.862,1.251.296,2.043,1.132,2.172,2.292.156,1.404-.3,2.758-1.659,3.421-2.09,1.019-3.355,1.365-5.953,1.964-1.983.458-8.722.996-13.643,1.389-1.646.131-3.136.25-4.268.351-1.596.142-3.697.305-5.797.305-3.669,0-6.529-.487-8.745-1.49-4.406-1.993-6.912-3.994-7.53-8.847-.649-5.092,2.738-7.184,5.695-8.042.565-.164,1.31-.248,2.214-.248,2.142,0,4.658.47,5.997.757l.278-1.208c-1.382-.299-3.987-.787-6.275-.787-1.02,0-1.881.1-2.559.297C3.87,10.15-.707,12.45.092,18.724c.688,5.403,3.545,7.691,8.248,9.819,2.379,1.076,5.406,1.6,9.254,1.6h0c2.148,0,4.285-.166,5.906-.31,1.129-.1,2.616-.219,4.258-.35,5.235-.418,11.75-.938,13.823-1.417,2.637-.608,4.021-.987,6.216-2.058,1.82-.888,2.559-2.755,2.347-4.67Z"/>
    <path class="st4" d="M14.268,14.207v-1.354c.008-.043.018-.086.024-.129.08-.63.125-1.267.245-1.89.483-2.492,1.579-4.688,3.302-6.552C20.227,1.698,23.179.261,26.701.028c1.392-.092,2.765.046,4.109.414,2.527.691,4.671,2.018,6.403,3.98,2.293,2.598,3.421,5.651,3.455,9.11.01,1.024-.1,2.038-.331,3.036-.79,3.41-2.586,6.159-5.453,8.175-2.461,1.731-5.213,2.485-8.218,2.315-1.229-.07-2.423-.319-3.579-.74-2.342-.853-4.289-2.263-5.838-4.21-1.72-2.159-2.688-4.625-2.931-7.375-.015-.176-.034-.351-.051-.526ZM28.697,17.581c-.704-1.54-1.402-3.066-2.101-4.598-1.867.707-3.784,1.108-5.767,1.204.001.027,0,.045.004.061.336,1.616.875,3.16,1.651,4.619.039.074.081.102.163.093.491-.056.985-.094,1.474-.167,1.369-.202,2.706-.536,4.01-1.001.186-.066.37-.138.567-.212ZM29.864,17.083c.128-.062.239-.116.35-.17,1.508-.739,2.897-1.656,4.149-2.777.061-.054.108-.095.079-.198-.439-1.562-1.044-3.054-1.854-4.461-.025-.044-.053-.087-.083-.137-1.417,1.311-2.999,2.346-4.738,3.153.702,1.536,1.397,3.056,2.097,4.589ZM29.226,18.738c-1.92.755-3.895,1.225-5.947,1.442.03.049.047.079.066.108.893,1.308,1.961,2.448,3.249,3.375.064.046.161.075.239.069.189-.013.376-.048.563-.08.998-.172,1.974-.425,2.927-.768.226-.082.449-.173.677-.262-.595-1.302-1.182-2.586-1.775-3.883ZM27.238,11.338c1.697-.783,3.222-1.802,4.574-3.087-.861-1.236-1.858-2.326-3.038-3.252-.977.997-2.075,1.814-3.311,2.456.592,1.296,1.181,2.584,1.775,3.883ZM35.492,13.019c.098-.11.184-.204.268-.299,1.067-1.22,1.92-2.575,2.549-4.069.028-.066.024-.167-.005-.234-.462-1.045-1.064-2.003-1.798-2.878-.188-.225-.389-.439-.596-.673-.673,1.309-1.497,2.48-2.478,3.544.88,1.442,1.554,2.972,2.06,4.608ZM21.125,19.009c-.02-.046-.037-.085-.055-.123-.69-1.425-1.188-2.914-1.495-4.468-.043-.219-.043-.223-.275-.231-.952-.034-1.892-.155-2.823-.354-.31-.066-.616-.146-.938-.222,0,.057,0,.105,0,.153.023,1.513.314,2.972.864,4.381.152.389.152.387.561.472,1.058.219,2.127.346,3.206.391.313.013.626.002.954.002ZM26.067,11.826c-.589-1.287-1.172-2.565-1.76-3.85-1.215.465-2.455.729-3.742.74-.149,1.414-.134,2.809.049,4.209,1.884-.07,3.69-.44,5.453-1.098ZM30.391,18.236c.594,1.298,1.178,2.576,1.765,3.86,1.045-.525,2.012-1.14,2.908-1.866.04-.032.065-.104.067-.159.064-1.361-.02-2.713-.238-4.057-.03-.184-.067-.366-.104-.567-1.352,1.134-2.811,2.048-4.398,2.789ZM36.426,18.958c.023-.006.034-.005.04-.01.02-.017.04-.035.058-.054,1.103-1.16,1.992-2.464,2.636-3.931.089-.204.191-.419.21-.635.036-.403.023-.811.017-1.217-.012-.757-.118-1.504-.274-2.245-.041-.193-.093-.384-.145-.597-.027.035-.037.045-.042.056-.79,1.512-1.795,2.865-2.994,4.076-.028.028-.04.094-.031.136.3,1.366.485,2.747.513,4.147.001.091.008.181.012.275ZM32.7,7.307c.017-.009.027-.011.032-.017.868-.982,1.592-2.061,2.167-3.239.036-.073.004-.103-.043-.141-1.121-.905-2.361-1.591-3.728-2.05-.089-.03-.128-.015-.17.072-.278.574-.61,1.116-.981,1.633-.115.161-.236.317-.36.483,1.19.943,2.203,2.039,3.082,3.259ZM17.313,19.98c.02.038.027.053.036.067.686,1.121,1.528,2.111,2.531,2.962.079.067.169.133.266.164,1.301.423,2.64.64,4.005.695.21.008.42.001.654.001-.232-.22-.45-.418-.658-.626-.867-.866-1.616-1.826-2.258-2.869-.042-.069-.087-.098-.169-.093-.132.008-.265.004-.398.006-1.058.017-2.112-.039-3.161-.185-.275-.038-.549-.079-.849-.123ZM19.265,8.634c-.832-.108-1.641-.341-2.427-.681-.683,1.38-1.092,2.821-1.244,4.346,1.221.363,2.459.567,3.707.617-.036-.723-.094-1.428-.1-2.133-.006-.71.04-1.421.064-2.149ZM27.723,4.255c-1.393-.88-2.883-1.46-4.518-1.741.583,1.276,1.156,2.528,1.73,3.784,1.038-.547,1.956-1.219,2.788-2.043ZM23.778,6.818c-.544-1.188-1.081-2.365-1.629-3.563-.675,1.343-1.126,2.726-1.397,4.187,1.053-.036,2.046-.255,3.027-.624ZM28.577,3.295c.305-.311,1.095-1.521,1.161-1.801-1.629-.316-3.251-.297-4.869.082,1.321.397,2.558.966,3.708,1.719ZM20.605,3.516c-1.263.902-2.301,2.009-3.139,3.323.648.273,1.307.452,2.004.54.236-1.332.613-2.618,1.135-3.864ZM32.05,24.916c-.186-.405-.352-.767-.521-1.138-1.02.418-2.053.739-3.143.976.068.034.106.057.146.073.486.197.972.391,1.457.589.149.061.289.075.445.023.529-.177,1.062-.344,1.616-.522ZM34.954,21.944c-.758.449-1.503.891-2.256,1.338.153.335.315.687.491,1.074.482-.331.95-.653,1.417-.977.032-.023.059-.068.068-.107.096-.442.188-.886.28-1.327ZM27.605,25.801c-.402-.241-.795-.478-1.19-.71-.037-.022-.093-.025-.139-.02-.798.076-1.597.095-2.398.052-.105-.006-.21,0-.347,0,1.271.493,3.018.746,4.073.679ZM36.245,21.841c.523-.467,1.826-2.43,1.899-2.851-.011.01-.023.018-.031.028-.522.626-1.093,1.205-1.704,1.744-.022.019-.048.046-.051.072-.039.328-.073.657-.112,1.007Z"/>
    <path d="M12.158,45.791h0c-2.361,0-4.396-.553-6.364-1.088l-.145-.039c-3.323-.902-5.2-3.452-4.566-6.202.504-2.185,1.995-5.013,9.112-7.509,6.034-2.116,17.234-2.561,25.568-2.561,3.852,0,6.552.102,6.579.103,3.46.237,5.382,1.128,5.731,2.649.337,1.471-.984,2.983-2.354,3.766-1.509.862-5.094,1.649-10.391,2.75-5.207,1.083-10.822,3.81-16.253,6.448-2.332,1.133-4.595,1.683-6.917,1.683ZM35.764,29.629c-6.744,0-18.98.324-25.159,2.491-6.547,2.296-7.883,4.744-8.316,6.62-.485,2.099.996,4,3.684,4.729l.145.04c1.89.513,3.844,1.044,6.04,1.044,2.131,0,4.217-.51,6.377-1.559,5.499-2.671,11.184-5.432,16.542-6.546,4.217-.877,8.577-1.783,10.029-2.613.984-.563,1.938-1.646,1.761-2.415-.096-.42-.736-1.426-4.59-1.69-.008,0-2.687-.101-6.513-.101Z"/>
    <path d="M21.796,47.214c-4.406,0-7.703-1.469-7.888-1.553l.512-1.127c.058.026,5.844,2.591,12.104.794,3.662-1.052,5.255-2.581,6.795-4.059.593-.57,1.153-1.107,1.819-1.613.734-.558,1.353-1.063,1.952-1.551,1.244-1.013,2.255-1.79,4.073-2.895l.807.878c-1.745,1.061-2.835,1.949-4.098,2.977-.607.494-1.235,1.005-1.985,1.576-.609.463-1.144.977-1.711,1.521-1.572,1.509-3.354,3.22-7.31,4.356-1.771.508-3.491.697-5.07.697Z"/>
    <path class="st8" d="M42.247,20.391c.02-.071.037-.138.048-.197.023-.119.023-.241,0-.361-.029-.151-.064-.301-.108-.461-.05-.181-.151-.34-.286-.46.002-.098-.002-.18-.006-.237-.008-.113-.037-.224-.085-.327-.23-.5-.524-.996-.876-1.474-.208-.283-.555-.428-.903-.379-.348.05-.64.287-.76.617-.555,1.523-1.076,2.517-1.406,3.094-.167-.834-.581-1.955-1.735-1.955-.067,0-.136.004-.207.014-.679.094-1.101.619-1.27,1.081-.007.021-.015.041-.021.062-.47,1.607.467,3.079,1.027,3.959.083.131.16.251.224.36.123.21.353.601.451.98.334,1.295.489,2.727-.627,4.426-.849,1.293-1.682,2.432-2.29,3.264-.167.229-1.107,1.158-1.37,1.481,1.509.794,3.058,1.172,4.368,1.549.9-1.624,3.881-7.254,4.546-11.165.938-.99,1.417-2.07,1.431-3.357.002-.186-.051-.365-.146-.517Z"/>
    <path class="st3" d="M40.463,21.619c.479-.322.585-.387.843-.749.046-.065.129-.238.155-.444-.026-.132-.031-.544-.15-.752-.353.384-.656.617-1.103.769.232-.377.438-.798.498-1.265.03-.235.069-.655-.02-.943-.129-.347-.263-.446-.52-.795-.721,1.981-1.394,3.114-1.703,3.629,0,0-.536.896-.921,1.193-.404-.163-.523-1.265-.523-1.265-.059-.521-.227-1.888-.966-1.786-.365.05-.506.467-.506.467-.409,1.4.692,2.775,1.159,3.569.188.32.429.749.552,1.225.37,1.434.57,3.172-.753,5.186-1.14,1.738-3.054,3.807-3.663,4.659l1.668.635,1.191.198c.7-1.245,3.662-6.917,4.317-10.933l.05-.452.093-.122c.935-.853,1.329-1.357,1.339-2.322-.397.301-.616.323-1.037.298Z"/>
    <path class="st3" d="M29.824,33.801l.278-.675s-4.09-3.693-4.844-3.852c-.754-.159-2.224-.953-2.779-.794-.556.159-1.906.437-2.501.755-.596.318-.546,3.008-.308,3.445s10.156,1.122,10.156,1.122Z"/>
    <path d="M40.329,35.805c-.901-.488-4.628-.097-7.805-2.122-3.252-2.073-6.294-7.18-11.217-5.827-5.201,1.43-4.36,5.499-4.507,11.664-.04,1.668-.953,3.534-2.025,4.963l1.152-.278c.873-1.191,1.691-2.737,1.668-4.527-.08-5.996-.334-9.306,3.831-10.84,3.772-1.39,6.744,3.572,10.145,5.599,1.866,1.112,4.94,1.325,7.028,1.549,0,0,.965-.366,1.73-.181Z"/>
    <path class="st8" d="M20.801,35.896c-1.757-1.757-.109-6.979.371-9.045.344-1.481.423-2.956,1.944-4.129.25-.193.578-.724.578-.724.176-.336.167-.767-.042-1.083-.328-.496-1.368-.604-1.787-.466-.538.177-1.015.233-2.396,1.944l-.164.203-.188-.181c-.709-.685-1.454-1.584-2.157-2.598l-.282-.408c-.178-.257-.471-.411-.784-.411-.067,0-.189-.132-.255-.118-.377.081-.612.517-.683.897l-.132.562c-.081.432-.049.884.096,1.255l.113.21-.08.119c-.258.391-.158.928-.129,1.086.021.112.13.359.189.457.124.207.208.28.31.428l.067.097-.037.112c-.071.216-.042.653.117.981.401.826.705,1.122.963,1.564.297.51.882,1.396.769,2.872-.081,1.053-4.096,7.419,1.265,9.96.476-1.549,1.141-2.194,2.333-3.584Z"/>
    <path class="st3" d="M21.706,21.361c-.469.261-.953.606-2.053,2.403l-.154.207-.77-.622-.052-.049c-.82-.755-1.681-1.772-2.49-2.942l-.282-.407-.09.487c-.499,2.695.68,4.736,1.398,5.647.504.639.977,1.562.939,3.272-.021.953-3.893,7.026,1.071,9.647.477-1.221.833-1.737,1.191-2.462-2.651-.675-.371-8.276-.179-9.793.181-1.437.717-3.214,2.524-4.802.171-.15.348-.457.139-.754-.228-.268-1.012.069-1.191.169Z"/>
    <g>
      <path class="st8" d="M17.398,23.327c-.639-.677-1.067-1.22-1.42-1.836-.119-.209-.228-.536-.199-.864l-.818.998c.655.925,1.612,1.424,2.437,1.702Z"/>
      <path class="st8" d="M17.308,24.548c-.778-.462-.92-.726-1.326-1.36-.067-.105-.213-.367-.252-.586l-.442,1.122c.817.694,1.204.807,2.021.824Z"/>
    </g>
    <path class="st8" d="M39.976,20.691c.569-.603.684-1.044.998-1.593.106-.186.292-.709.139-1.201l.635,1.211c-.456,1.025-1.038,1.335-1.772,1.583Z"/>
    <path class="st8" d="M40.116,21.778c.655-.329.853-.588,1.143-.968.08-.105.171-.372.179-.7l.356,1.115c-.699.515-1.018.584-1.679.552Z"/>
    <path class="st8" d="M27.392,32.246c.242.597.07,1.23-.385,1.414-.454.184-1.018-.151-1.26-.748-.242-.597-.069-1.23.385-1.414.453-.184,1.018.151,1.26.748Z"/>
    <path class="st8" d="M23.779,33.582c.242.597.07,1.23-.385,1.414-.454.184-1.018-.151-1.26-.748-.242-.597-.07-1.23.384-1.414.454-.184,1.019.151,1.26.748Z"/>
    <path d="M27.851,34.541l.016.052s.02.069-.019.155c-.359.798-.997,1.281-1.896,1.437-.303.053-.676.084-.997.084-.263,0-.467-.021-.589-.059-.066-.021-.127-.044-.182-.064-.133-.05-.236-.085-.308-.067-.179.043-.279.384-.28.387l-.154.547.19-.251c.124-.163.275-.346.315-.37.012-.007.028-.011.048-.011.152,0,.424.199.52.278.264.186.529.372.796.554.067.046.133.094.201.142l.026.019c.214.155.435.314.681.423.135.059.274.089.411.089.465,0,.837-.331.925-.824.052-.287.044-.583.032-.808-.017-.32.062-.614.256-.954l.048-.085c.095-.167.293-.514.314-.544.013-.018.026-.036.038-.054l.221-.323-.613.246Z"/>
    <path d="M27.054,38.184c-.324.06-.462.03-.686-.014.283.164.664.152.664.152.312.005.579-.209.698-.558,0,0,.087-.251.057-.485-.063.235-.086.29-.163.433-.151.23-.266.405-.57.472Z"/>
  </g>
</svg>