<?xml version="1.0" encoding="UTF-8"?>
<svg id="Layer_1" xmlns="http://www.w3.org/2000/svg" width="26.908mm" height="26.811mm" version="1.1" viewBox="0 0 76.273 76">
  <!-- Generator: Adobe Illustrator 29.0.0, SVG Export Plug-In . SVG Version: 2.1.0 Build 186)  -->
  <defs>
    <style>
      .st0 {
        fill: #b7c9a6;
      }

      .st1 {
        fill: #c7eafb;
      }

      .st2 {
        fill: #221e1f;
      }

      .st3 {
        fill: #fdbd4a;
      }

      .st4 {
        fill-rule: evenodd;
      }

      .st5 {
        fill: #404041;
      }

      .st6 {
        fill: #97a88b;
      }

      .st7 {
        fill: #8ebbd0;
      }

      .st8 {
        fill: #d09d3d;
      }
    </style>
  </defs>
  <path class="st0" d="M23.004,15.873l-7.111-.638s-6.564-.182-7.385.456c-.821.638-5.926,3.282-6.2,4.65-.274,1.368-1.55,8.388-1.55,9.208s3.008,6.017,3.008,6.291,5.471,4.741,5.471,4.741l10.393,4.194,7.932.182,13.403-1.094,13.858-1.003,10.393-1.55,6.747-2.37,3.283-3.829-.274-4.832s-3.1-2.097-3.374-2.097-5.834-1.367-6.108-1.55-3.94-2.93-3.94-2.93l-38.546-7.828Z"/>
  <path class="st6" d="M71.96,28.181c-.273,0-5.834-1.367-6.108-1.55-.274-.183-3.94-2.93-3.94-2.93l-38.546-7.828-7.112-.638s-6.564-.182-7.385.456c-.821.638-5.926,3.282-6.199,4.65-.274,1.368-1.55,8.388-1.55,9.208s3.009,6.017,3.009,6.291c0,.081.483.532,1.16,1.125-.062-.893-.105-1.653-.105-2.067,0-1.569.362-2.414.604-3.863.241-1.448.844-2.293,1.931-3.742,1.087-1.449,2.536-2.414,3.622-3.259,1.086-.845,6.276-2.293,8.328-2.897,2.052-.603,4.949,0,5.312,0s31.265,5.553,32.713,5.673c1.448.121,10.14,2.656,12.433,3.863,2.293,1.207,2.414,2.173,3.138,3.018.724.845.483,2.656.483,2.656l.569.268,1.289-1.504-.274-4.832s-3.1-2.097-3.374-2.097Z"/>
  <path class="st5" d="M60.712,72.341c0,2.021-8.227,3.659-18.375,3.659s-18.376-1.638-18.376-3.659,8.227-3.659,18.376-3.659,18.375,1.638,18.375,3.659Z"/>
  <path class="st1" d="M61.022,20.614c0,10.373-8.408,18.781-18.781,18.781s-18.782-8.408-18.782-18.781S31.868,1.833,42.241,1.833s18.781,8.408,18.781,18.781Z"/>
  <path class="st7" d="M32.85,15.691c0-4.74,1.32-9.173,3.613-12.948-7.545,2.437-13.005,9.515-13.005,17.871,0,10.373,8.409,18.781,18.782,18.781,1.927,0,3.787-.291,5.537-.831-8.79-3.869-14.928-12.653-14.928-22.873Z"/>
  <path class="st0" d="M27.471,70.302l-4.832-1.823s5.744-2.006,7.385-2.918c1.641-.912,7.021-3.373,9.391-4.467,2.371-1.094,6.108-2.553,8.114-3.282,2.006-.73,5.835-1.459,7.112-1.824,1.276-.365,7.111-1.459,7.111-1.459,0,0-2.553,2.644-4.011,3.829-1.459,1.185-5.926,5.105-6.747,5.835-.82.729-3.556,2.917-5.288,3.829-1.733.912-5.379,2.006-7.477,2.37-2.096.365-10.211-.091-10.759-.091Z"/>
  <path class="st3" d="M71.501,47.667c-.207-.904-1.437-2.481-7.349-2.886l-.039-.002c-.721-.025-4.59-.153-9.889-.153-10.275,0-28.927.495-38.377,3.809-10.141,3.557-12.223,7.403-12.905,10.357-.789,3.421,1.579,6.506,5.892,7.677l.221.06c2.899.787,5.896,1.602,9.288,1.602,3.304,0,6.533-.789,9.877-2.412,8.334-4.048,16.951-8.234,25.043-9.916,6.441-1.339,13.1-2.723,15.365-4.017,1.659-.948,3.188-2.748,2.874-4.119Z"/>
  <path class="st8" d="M64.426,44.781l-.039-.002c-.721-.025-4.59-.153-9.889-.153-10.276,0-28.926.495-38.377,3.809-10.14,3.557-12.223,7.403-12.904,10.357-.79,3.421,1.579,6.506,5.892,7.677l.222.06c2.898.787,5.896,1.602,9.287,1.602,0,0-2.816-2.239-3.728-3.117-.936-.901-1.477-2.271-1.55-3.396-.08-1.231.125-2.658,1.185-4.353.934-1.493,2.4-2.994,5.835-4.832,3.407-1.823,4.98-2.234,8.388-3.191,2.559-.719,15.044-2.279,17.87-2.462,2.825-.182,19.145-.182,21.698.091,2.553.274,3.1,1.823,3.1,1.823,0,0,.106.034.265.088.132-.386.174-.765.094-1.116-.207-.904-1.437-2.481-7.349-2.886Z"/>
  <path class="st8" d="M27.767,46.066l-3.387.426c.067.364.133.743.202,1.138.341,1.947.731,4.171,1.492,6.264.307-2.637.79-5.051,2.132-5.356-.199-.819-.354-1.653-.44-2.472Z"/>
  <path class="st8" d="M51.931,42.996c-.186.387-.405.781-.669,1.183-1.795,2.735-3.175,4.686-4.378,6.317l-.26.357,2.947.303,1.566.361.115-.203c.514-.902,2.355-4.23,3.892-8.177l-3.213-.142Z"/>
  <path d="M76.22,32.434c-.284-2.563-2.055-4.471-4.738-5.107-2.558-.606-7.144-2.412-10.744-4.44l-.411,1.92c3.738,2.004,8.079,3.724,10.722,4.351,1.902.451,3.106,1.721,3.302,3.484.237,2.135-.456,4.192-2.522,5.2-3.177,1.549-5.1,2.074-9.048,2.986-3.014.695-13.258,1.514-20.738,2.111-2.502.2-4.767.38-6.488.533-2.426.216-5.62.463-8.811.463-5.576,0-9.924-.741-13.292-2.264-6.698-3.03-10.506-6.071-11.446-13.448-.987-7.74,4.162-10.919,8.656-12.224.859-.25,1.992-.376,3.365-.376,3.257,0,7.08.714,9.116,1.151l.422-1.836c-2.101-.454-6.061-1.196-9.538-1.196-1.55,0-2.859.152-3.889.451C5.882,15.427-1.075,18.924.14,28.46c1.046,8.212,5.389,11.691,12.537,14.924,3.616,1.636,8.217,2.431,14.066,2.431h0c3.265,0,6.513-.252,8.977-.471,1.717-.153,3.976-.333,6.472-.532,7.958-.636,17.86-1.426,21.011-2.153,4.008-.925,6.112-1.5,9.449-3.128,2.767-1.35,3.89-4.188,3.567-7.098Z"/>
  <path class="st4" d="M21.687,21.594v-2.058c.012-.065.028-.13.036-.196.122-.958.19-1.927.373-2.873.735-3.787,2.4-7.125,5.018-9.959C30.745,2.58,35.232.397,40.586.042c2.116-.14,4.203.071,6.246.629,3.841,1.05,7.099,3.067,9.732,6.05,3.486,3.949,5.199,8.589,5.252,13.847.015,1.556-.151,3.098-.503,4.615-1.2,5.183-3.93,9.361-8.288,12.426-3.74,2.631-7.924,3.778-12.491,3.519-1.869-.106-3.683-.485-5.44-1.124-3.56-1.297-6.519-3.44-8.874-6.4-2.614-3.282-4.085-7.03-4.455-11.209-.023-.267-.052-.533-.078-.8ZM43.619,26.723c-1.07-2.341-2.131-4.66-3.194-6.988-2.838,1.074-5.752,1.684-8.766,1.831.002.041,0,.068.006.093.51,2.457,1.33,4.803,2.51,7.021.059.112.123.156.248.141.747-.086,1.497-.144,2.241-.254,2.081-.307,4.114-.814,6.095-1.521.282-.101.562-.21.862-.323ZM45.394,25.966c.194-.094.363-.176.532-.258,2.292-1.123,4.403-2.517,6.307-4.221.092-.082.164-.144.12-.3-.668-2.374-1.587-4.642-2.818-6.781-.038-.067-.081-.132-.127-.208-2.154,1.992-4.559,3.565-7.202,4.793,1.067,2.335,2.123,4.646,3.188,6.975ZM44.423,28.481c-2.919,1.147-5.92,1.862-9.039,2.191.045.075.071.12.1.163,1.357,1.989,2.981,3.721,4.939,5.13.098.07.244.114.364.105.287-.02.572-.073.856-.122,1.517-.261,3.001-.646,4.449-1.167.344-.124.682-.263,1.03-.398-.905-1.98-1.796-3.931-2.698-5.903ZM41.402,17.233c2.58-1.19,4.898-2.739,6.953-4.693-1.308-1.878-2.824-3.536-4.618-4.943-1.486,1.516-3.154,2.757-5.032,3.733.9,1.97,1.795,3.927,2.697,5.903ZM53.949,19.789c.149-.167.279-.309.407-.455,1.621-1.855,2.918-3.915,3.875-6.185.042-.101.037-.254-.007-.355-.702-1.588-1.618-3.044-2.732-4.374-.286-.342-.591-.667-.906-1.022-1.023,1.99-2.275,3.769-3.767,5.388,1.338,2.192,2.362,4.517,3.132,7.004ZM32.11,28.893c-.031-.07-.056-.13-.084-.188-1.048-2.166-1.805-4.43-2.272-6.791-.066-.333-.066-.339-.418-.351-1.447-.052-2.876-.236-4.291-.538-.471-.1-.937-.221-1.425-.337,0,.087,0,.16,0,.232.034,2.299.477,4.518,1.314,6.658.231.592.231.588.852.717,1.608.333,3.234.526,4.873.595.475.02.951.003,1.451.003ZM39.621,17.976c-.895-1.957-1.782-3.898-2.676-5.852-1.847.706-3.731,1.108-5.688,1.125-.226,2.149-.203,4.27.075,6.397,2.864-.107,5.609-.669,8.289-1.669ZM46.195,27.719c.902,1.973,1.791,3.916,2.683,5.867,1.589-.797,3.058-1.734,4.42-2.836.061-.049.098-.158.103-.241.097-2.068-.03-4.124-.362-6.167-.046-.279-.102-.556-.158-.862-2.055,1.724-4.273,3.114-6.685,4.239ZM55.367,28.817c.035-.009.051-.008.06-.015.031-.026.061-.053.088-.082,1.676-1.763,3.028-3.746,4.007-5.975.136-.311.29-.636.319-.966.054-.613.035-1.233.026-1.85-.018-1.151-.179-2.287-.416-3.412-.062-.294-.141-.584-.221-.908-.042.054-.056.068-.064.085-1.2,2.298-2.729,4.354-4.551,6.196-.043.043-.061.143-.047.206.456,2.077.738,4.175.78,6.303.002.138.013.275.019.417ZM49.704,11.106c.025-.013.04-.016.049-.025,1.32-1.493,2.42-3.132,3.294-4.923.054-.11.006-.156-.065-.214-1.704-1.376-3.589-2.418-5.666-3.117-.135-.046-.195-.023-.258.11-.422.872-.927,1.696-1.491,2.482-.175.244-.359.482-.547.733,1.809,1.434,3.349,3.099,4.684,4.954ZM26.316,30.369c.03.057.042.08.055.102,1.043,1.704,2.322,3.209,3.847,4.502.12.102.258.202.405.25,1.978.642,4.012.973,6.088,1.056.319.013.639.002.994.002-.353-.335-.685-.636-1.001-.952-1.318-1.316-2.456-2.776-3.432-4.361-.064-.105-.132-.149-.256-.142-.201.013-.403.006-.604.01-1.609.025-3.211-.06-4.805-.28-.418-.058-.835-.121-1.29-.187ZM29.283,13.123c-1.264-.164-2.495-.518-3.689-1.035-1.038,2.098-1.66,4.287-1.891,6.606,1.856.551,3.737.862,5.635.938-.054-1.099-.143-2.17-.152-3.242-.009-1.079.061-2.159.097-3.267ZM42.138,6.467c-2.117-1.338-4.382-2.219-6.867-2.646.887,1.939,1.757,3.842,2.63,5.751,1.577-.832,2.973-1.854,4.237-3.105ZM36.142,10.364c-.826-1.806-1.644-3.594-2.476-5.415-1.026,2.041-1.712,4.143-2.124,6.364,1.6-.055,3.11-.388,4.6-.948ZM43.437,5.008c.463-.472,1.665-2.312,1.765-2.737-2.476-.481-4.942-.451-7.401.124,2.009.603,3.889,1.468,5.636,2.613ZM31.32,5.345c-1.919,1.372-3.498,3.054-4.771,5.051.984.416,1.986.687,3.047.821.359-2.025.932-3.979,1.724-5.873ZM48.716,37.872c-.282-.616-.535-1.166-.792-1.731-1.55.636-3.121,1.123-4.778,1.483.103.052.161.086.222.111.738.299,1.478.594,2.214.896.226.092.439.114.677.034.805-.269,1.615-.523,2.457-.793ZM53.13,33.355c-1.152.683-2.285,1.354-3.43,2.033.233.51.478,1.044.747,1.633.732-.504,1.444-.992,2.154-1.486.049-.034.09-.103.103-.163.146-.673.286-1.347.426-2.017ZM41.96,39.217c-.611-.366-1.208-.726-1.809-1.079-.056-.033-.141-.037-.211-.031-1.213.116-2.428.145-3.645.079-.159-.009-.319-.001-.527-.001,1.932.749,4.588,1.133,6.192,1.032ZM55.092,33.199c.795-.709,2.776-3.694,2.886-4.333-.017.015-.035.027-.048.042-.793.952-1.661,1.832-2.591,2.651-.033.029-.074.07-.078.109-.059.499-.112.999-.17,1.531Z"/>
  <path d="M18.48,69.602h0c-3.588,0-6.682-.84-9.674-1.653l-.221-.06c-5.051-1.371-7.904-5.248-6.94-9.428.766-3.321,3.033-7.619,13.851-11.413,9.171-3.217,26.196-3.892,38.864-3.892,5.855,0,9.959.154,10,.156,5.259.36,8.181,1.714,8.712,4.026.512,2.236-1.496,4.535-3.578,5.725-2.293,1.311-7.743,2.506-15.794,4.18-7.915,1.645-16.45,5.791-24.705,9.801-3.544,1.722-6.984,2.559-10.514,2.559ZM54.361,45.037c-10.251,0-28.849.492-38.242,3.786-9.951,3.49-11.983,7.21-12.64,10.062-.736,3.191,1.514,6.08,5.6,7.189l.221.06c2.873.78,5.844,1.587,9.181,1.587,3.239,0,6.41-.775,9.693-2.369,8.358-4.059,17-8.257,25.144-9.95,6.409-1.333,13.037-2.711,15.244-3.971,1.496-.855,2.945-2.502,2.677-3.671-.146-.639-1.119-2.167-6.977-2.569-.013,0-4.085-.153-9.9-.153Z"/>
  <path d="M33.13,71.766c-6.696,0-11.708-2.233-11.99-2.361l.778-1.712c.088.04,8.883,3.939,18.398,1.206,5.566-1.598,7.987-3.923,10.329-6.17.901-.866,1.753-1.683,2.764-2.452,1.115-.849,2.057-1.616,2.968-2.358,1.891-1.539,3.427-2.721,6.19-4.401l1.226,1.335c-2.653,1.613-4.31,2.962-6.228,4.525-.923.751-1.877,1.528-3.017,2.396-.925.704-1.739,1.485-2.601,2.312-2.389,2.294-5.098,4.895-11.111,6.622-2.691.772-5.307,1.059-7.706,1.059Z"/>
  <path class="st2" d="M64.216,30.995c.031-.108.056-.21.073-.299.035-.181.035-.367,0-.548-.044-.229-.098-.458-.164-.7-.076-.275-.229-.517-.435-.7.003-.149-.003-.274-.009-.361-.013-.172-.056-.34-.129-.497-.35-.76-.797-1.514-1.331-2.24-.316-.43-.844-.651-1.373-.576-.528.076-.972.436-1.156.938-.843,2.315-1.635,3.826-2.137,4.703-.253-1.267-.883-2.971-2.637-2.971-.103,0-.207.007-.315.022-1.033.142-1.674.941-1.931,1.644-.011.031-.022.063-.031.095-.715,2.443.71,4.68,1.562,6.017.127.199.244.382.341.547.187.319.537.914.686,1.49.507,1.968.744,4.144-.953,6.727-1.29,1.966-2.556,3.697-3.481,4.961-.254.348-1.683,1.761-2.083,2.252,2.294,1.207,4.647,1.781,6.639,2.354,1.367-2.468,5.9-11.025,6.91-16.97,1.426-1.505,2.154-3.146,2.175-5.102.003-.283-.077-.555-.222-.785Z"/>
  <path class="st3" d="M61.504,32.861c.728-.489.889-.588,1.282-1.139.069-.098.196-.362.235-.675-.039-.201-.047-.826-.228-1.143-.536.584-.997.939-1.677,1.168.353-.572.666-1.214.757-1.923.045-.357.105-.996-.03-1.434-.196-.528-.4-.678-.79-1.208-1.096,3.011-2.118,4.733-2.589,5.517,0,0-.815,1.362-1.4,1.814-.614-.248-.795-1.923-.795-1.923-.09-.792-.345-2.869-1.468-2.714-.555.076-.769.709-.77.71-.622,2.128,1.052,4.217,1.762,5.425.285.486.652,1.138.84,1.862.562,2.18.867,4.821-1.144,7.883-1.733,2.641-4.642,5.787-5.568,7.082l2.535.966,1.811.302c1.064-1.892,5.567-10.514,6.562-16.619l.076-.687.141-.186c1.421-1.297,2.02-2.063,2.035-3.53-.603.457-.936.49-1.576.452Z"/>
  <path class="st3" d="M45.333,51.378l.422-1.026s-6.217-5.613-7.364-5.854c-1.146-.241-3.38-1.449-4.225-1.207-.845.241-2.897.664-3.802,1.147-.905.483-.831,4.572-.468,5.236s15.437,1.705,15.437,1.705Z"/>
  <path d="M61.3,54.423c-1.37-.742-7.034-.148-11.863-3.226-4.943-3.151-9.567-10.914-17.051-8.857-7.906,2.173-6.627,8.359-6.85,17.729-.06,2.535-1.448,5.372-3.078,7.545l1.75-.423c1.328-1.811,2.571-4.16,2.535-6.88-.121-9.114-.507-14.144,5.824-16.477,5.734-2.112,10.251,5.43,15.421,8.51,2.837,1.69,7.509,2.015,10.683,2.354,0,0,1.467-.556,2.629-.275Z"/>
  <path class="st2" d="M31.617,54.562c-2.671-2.671-.166-10.607.564-13.749.523-2.252.643-4.494,2.954-6.277.381-.294.879-1.1.879-1.1.267-.511.254-1.165-.064-1.646-.498-.754-2.079-.918-2.716-.709-.818.268-1.543.354-3.642,2.955l-.249.308-.285-.275c-1.077-1.042-2.21-2.407-3.278-3.949l-.428-.62c-.271-.391-.716-.624-1.191-.624-.102,0-.287-.2-.387-.179-.574.123-.931.786-1.038,1.363l-.2.855c-.122.657-.075,1.343.146,1.908l.171.319-.122.181c-.392.595-.241,1.41-.196,1.651.032.171.197.545.287.694.188.314.316.426.47.651l.102.148-.056.17c-.107.328-.064.992.177,1.49.609,1.256,1.072,1.705,1.463,2.378.452.775,1.341,2.122,1.168,4.365-.123,1.601-6.226,11.276,1.923,15.139.724-2.354,1.735-3.335,3.546-5.447Z"/>
  <path class="st3" d="M32.993,32.469c-.714.397-1.448.921-3.12,3.652l-.235.314-1.17-.946-.079-.075c-1.246-1.148-2.555-2.694-3.785-4.471l-.429-.619-.137.741c-.759,4.097,1.033,7.198,2.125,8.584.765.971,1.485,2.375,1.427,4.973-.032,1.449-5.917,10.68,1.627,14.663.724-1.856,1.267-2.641,1.811-3.742-4.029-1.026-.564-12.579-.273-14.885.276-2.184,1.091-4.885,3.836-7.299.259-.228.528-.694.211-1.147-.347-.407-1.539.105-1.811.256Z"/>
  <g>
    <path class="st2" d="M26.444,35.457c-.971-1.03-1.622-1.854-2.158-2.791-.181-.317-.347-.815-.302-1.313l-1.244,1.517c.996,1.406,2.45,2.164,3.704,2.588Z"/>
    <path class="st2" d="M26.309,37.312c-1.183-.702-1.398-1.103-2.016-2.067-.103-.16-.323-.558-.383-.89l-.672,1.705c1.242,1.054,1.83,1.226,3.071,1.252Z"/>
  </g>
  <path class="st2" d="M60.764,31.45c.864-.917,1.04-1.588,1.517-2.422.161-.282.443-1.077.211-1.826l.966,1.841c-.693,1.557-1.578,2.03-2.694,2.407Z"/>
  <path class="st2" d="M60.977,33.102c.995-.5,1.297-.894,1.738-1.471.122-.16.26-.566.272-1.064l.542,1.695c-1.062.782-1.547.888-2.551.839Z"/>
  <path class="st2" d="M41.635,49.014c.368.907.106,1.87-.585,2.149-.69.28-1.548-.229-1.915-1.136-.367-.907-.105-1.87.586-2.149.689-.28,1.548.229,1.914,1.137Z"/>
  <path class="st2" d="M36.144,51.044c.368.907.106,1.869-.585,2.149-.69.28-1.548-.229-1.914-1.137-.368-.907-.106-1.87.584-2.149.69-.279,1.548.229,1.916,1.137Z"/>
  <path d="M42.333,52.503l.024.079s.03.105-.028.236c-.545,1.213-1.515,1.948-2.881,2.184-.461.08-1.028.127-1.515.127-.4,0-.709-.031-.895-.09-.1-.032-.193-.067-.277-.098-.202-.076-.358-.129-.468-.102-.272.066-.424.583-.425.588l-.234.832.289-.381c.188-.248.419-.526.478-.562.018-.011.043-.016.073-.016.231,0,.644.302.79.422.402.282.803.565,1.21.842.102.07.203.143.305.216l.04.029c.325.235.661.478,1.035.642.206.09.416.136.625.136.707,0,1.272-.503,1.406-1.253.079-.437.067-.886.049-1.228-.026-.486.094-.933.389-1.45l.074-.129c.145-.254.446-.782.477-.826.02-.027.039-.055.058-.082l.335-.49-.932.373Z"/>
  <path d="M41.123,58.04c-.492.091-.702.046-1.043-.021.43.249,1.009.231,1.009.231.474.007.88-.318,1.062-.848,0,0,.132-.381.086-.737-.096.357-.13.441-.248.658-.229.35-.405.616-.867.717Z"/>
</svg>